<svg width="41" height="34" viewBox="0 0 41 34" fill="none" xmlns="http://www.w3.org/2000/svg">
<path d="M29.3824 5.91459L34.0574 9.79576M32.3879 2.49543L19.7408 12.9949C19.0854 13.5355 18.6394 14.2262 18.46 14.9786L17.2917 19.8333L23.1394 18.8616C24.0448 18.7113 24.8752 18.3428 25.5288 17.8001L38.176 7.30059C38.556 6.98508 38.8575 6.61051 39.0632 6.19828C39.2688 5.78604 39.3747 5.34421 39.3747 4.89801C39.3747 4.45181 39.2688 4.00998 39.0632 3.59774C38.8575 3.18551 38.556 2.81094 38.176 2.49543C37.7959 2.17992 37.3447 1.92964 36.8482 1.75888C36.3516 1.58813 35.8194 1.50024 35.2819 1.50024C34.7445 1.50024 34.2123 1.58813 33.7157 1.75888C33.2191 1.92964 32.768 2.17992 32.3879 2.49543Z" stroke="#184B05" stroke-width="2" stroke-linecap="round" stroke-linejoin="round"/>
<path d="M34.9585 23.4999V28.9999C34.9585 29.9724 34.4932 30.905 33.6649 31.5927C32.8366 32.2803 31.7132 32.6666 30.5418 32.6666H6.25016C5.07879 32.6666 3.95539 32.2803 3.12711 31.5927C2.29882 30.905 1.8335 29.9724 1.8335 28.9999V8.83326C1.8335 7.8608 2.29882 6.92817 3.12711 6.24054C3.95539 5.5529 5.07879 5.16659 6.25016 5.16659H12.8752" stroke="#184B05" stroke-width="2" stroke-linecap="round" stroke-linejoin="round"/>
</svg>
