<svg width="357" height="321" viewBox="0 0 357 321" fill="none" xmlns="http://www.w3.org/2000/svg">
<g clip-path="url(#clip0_383_19)">
<mask id="mask0_383_19" style="mask-type:luminance" maskUnits="userSpaceOnUse" x="0" y="0" width="357" height="321">
<path d="M357 0H0V321H357V0Z" fill="white"/>
</mask>
<g mask="url(#mask0_383_19)">
<mask id="mask1_383_19" style="mask-type:luminance" maskUnits="userSpaceOnUse" x="0" y="0" width="357" height="321">
<path d="M357 0H0V321H357V0Z" fill="white"/>
</mask>
<g mask="url(#mask1_383_19)">
<path d="M127.786 37.8706C127.786 35.7027 129.739 33.9473 132.149 33.9473H154.757C157.168 33.9473 159.12 35.7027 159.12 37.8706V58.1983C159.12 60.3662 157.168 62.1217 154.757 62.1217H132.149C129.739 62.1217 127.786 60.3662 127.786 58.1983V37.8706Z" fill="#F9F9F9"/>
<path d="M163.281 37.8706C163.281 35.7027 165.234 33.9473 167.644 33.9473H190.253C192.663 33.9473 194.616 35.7027 194.616 37.8706V58.1983C194.616 59.239 194.156 60.2377 193.339 60.9729C192.52 61.709 191.41 62.1217 190.253 62.1217H167.644C166.487 62.1217 165.377 61.709 164.559 60.9729C163.741 60.2377 163.281 59.239 163.281 58.1983V37.8706Z" fill="#F9F9F9"/>
<path d="M198.777 37.8706C198.777 35.7027 200.73 33.9473 203.14 33.9473H225.749C228.158 33.9473 230.112 35.7027 230.112 37.8706V58.1983C230.112 59.239 229.652 60.2377 228.833 60.9729C228.016 61.709 226.906 62.1217 225.749 62.1217H203.14C201.983 62.1217 200.873 61.709 200.054 60.9729C199.236 60.2377 198.777 59.239 198.777 58.1983V37.8706Z" fill="#F9F9F9"/>
<path d="M127.786 70.0259C127.786 67.8591 129.739 66.1025 132.149 66.1025H154.757C157.168 66.1025 159.12 67.8591 159.12 70.0259V90.3547C159.12 91.3954 158.661 92.3933 157.843 93.1293C157.025 93.8646 155.914 94.2781 154.757 94.2781H132.149C130.992 94.2781 129.881 93.8646 129.064 93.1293C128.245 92.3933 127.786 91.3954 127.786 90.3547V70.0259Z" fill="#F9F9F9"/>
<path d="M163.281 70.0259C163.281 67.8591 165.234 66.1025 167.644 66.1025H190.253C192.663 66.1025 194.616 67.8591 194.616 70.0259V90.3547C194.616 91.3954 194.156 92.3933 193.339 93.1293C192.52 93.8646 191.41 94.2781 190.253 94.2781H167.644C166.487 94.2781 165.377 93.8646 164.559 93.1293C163.741 92.3933 163.281 91.3954 163.281 90.3547V70.0259Z" fill="#F9F9F9"/>
<path d="M198.777 70.0259C198.777 67.8591 200.73 66.1025 203.14 66.1025H225.749C228.158 66.1025 230.112 67.8591 230.112 70.0259V90.3547C230.112 91.3954 229.652 92.3933 228.833 93.1293C228.016 93.8646 226.906 94.2781 225.749 94.2781H203.14C201.983 94.2781 200.873 93.8646 200.054 93.1293C199.236 92.3933 198.777 91.3954 198.777 90.3547V70.0259Z" fill="#F9F9F9"/>
<path d="M127.786 102.181C127.786 100.015 129.739 98.2578 132.149 98.2578H154.757C157.168 98.2578 159.12 100.015 159.12 102.181V122.51C159.12 124.677 157.168 126.434 154.757 126.434H132.149C129.739 126.434 127.786 124.677 127.786 122.51V102.181Z" fill="#F9F9F9"/>
<path d="M163.281 102.181C163.281 100.015 165.234 98.2578 167.644 98.2578H190.253C192.663 98.2578 194.616 100.015 194.616 102.181V122.51C194.616 123.551 194.156 124.548 193.339 125.285C192.52 126.02 191.41 126.434 190.253 126.434H167.644C166.487 126.434 165.377 126.02 164.559 125.285C163.741 124.548 163.281 123.551 163.281 122.51V102.181Z" fill="#F9F9F9"/>
<path d="M198.777 102.181C198.777 100.015 200.73 98.2578 203.14 98.2578H225.749C228.158 98.2578 230.112 100.015 230.112 102.181V122.51C230.112 123.551 229.652 124.548 228.833 125.285C228.016 126.02 226.906 126.434 225.749 126.434H203.14C201.983 126.434 200.873 126.02 200.054 125.285C199.236 124.548 198.777 123.551 198.777 122.51V102.181Z" fill="#F9F9F9"/>
<path d="M127.786 134.337C127.786 132.169 129.739 130.414 132.149 130.414H154.757C157.168 130.414 159.12 132.169 159.12 134.337V154.665C159.12 156.833 157.168 158.588 154.757 158.588H132.149C129.739 158.588 127.786 156.833 127.786 154.665V134.337Z" fill="#F9F9F9"/>
<path d="M163.281 134.337C163.281 132.169 165.234 130.414 167.644 130.414H190.253C192.663 130.414 194.616 132.169 194.616 134.337V154.665C194.616 155.706 194.156 156.704 193.339 157.439C192.52 158.176 191.41 158.588 190.253 158.588H167.644C166.487 158.588 165.377 158.176 164.559 157.439C163.741 156.704 163.281 155.706 163.281 154.665V134.337Z" fill="#F9F9F9"/>
<path d="M198.777 134.337C198.777 132.169 200.73 130.414 203.14 130.414H225.749C228.158 130.414 230.112 132.169 230.112 134.337V154.665C230.112 155.706 229.652 156.704 228.833 157.439C228.016 158.176 226.906 158.588 225.749 158.588H203.14C201.983 158.588 200.873 158.176 200.054 157.439C199.236 156.704 198.777 155.706 198.777 154.665V134.337Z" fill="#F9F9F9"/>
<path d="M46.7208 33.9473H111.218V100.522H46.7208V33.9473Z" fill="#ECECEC"/>
<path d="M51.1687 38.5386H106.77V95.9304H51.1687V38.5386Z" fill="#F9F9F9"/>
<path d="M51.1687 38.5386H106.77V95.9304H103.063V41.8616H51.1687V38.5386Z" fill="#CCCCCC"/>
<path d="M70.936 49.0015H91.047V87.9495H70.936V49.0015Z" fill="#CCCCCC"/>
<path d="M66.8917 46.52H87.0027V85.468H66.8917V46.52Z" fill="#E6E6E6"/>
<path d="M46.7208 110.141H111.218V176.716H46.7208V110.141Z" fill="#ECECEC"/>
<path d="M51.1687 114.732H106.77V172.125H51.1687V114.732Z" fill="#F9F9F9"/>
<path d="M51.1687 114.732H106.77V172.125H103.063V118.055H51.1687V114.732Z" fill="#CCCCCC"/>
<path d="M64.7865 141.487C64.7865 134.951 70.6786 129.653 77.9467 129.653C85.2148 129.653 91.107 134.951 91.107 141.487C91.107 148.022 85.2148 153.319 77.9467 153.319C70.6786 153.319 64.7865 148.022 64.7865 141.487Z" fill="#E6E6E6"/>
<path d="M83.4269 139.714C78.0603 139.714 73.7015 143.633 73.7015 148.459C73.7015 153.284 78.0603 157.204 83.4269 157.204C88.7935 157.204 93.1523 153.284 93.1523 148.459C93.1523 143.633 88.7935 139.714 83.4269 139.714ZM83.4269 140.417C88.3708 140.417 92.3709 144.014 92.3709 148.459C92.3709 152.905 88.3708 156.501 83.4269 156.501C78.4826 156.501 74.4829 152.905 74.4829 148.459C74.4829 144.014 78.4826 140.417 83.4269 140.417Z" fill="#483737"/>
<path d="M262.033 176.999H300.152L318.664 205.829L299.898 235.055H304.497L324.58 203.778L304.227 172.08H264.209L262.033 176.999Z" fill="#CCCCCC"/>
<path d="M327.677 204.099L305.828 170.068H262.128L240.274 204.099L262.128 238.129H305.828L327.677 204.099ZM322.896 204.099L303.435 234.405H264.521L245.059 204.099L264.516 173.793H303.435L322.896 204.099Z" fill="#E6E6E6"/>
<path d="M282.033 221.96C282.713 209.473 288.425 200.787 297.306 194.494C290.792 203.065 286.006 212.172 283.757 222.071L282.033 221.96Z" fill="#ECECEC"/>
<path d="M282.033 221.96C281.354 209.473 275.641 200.787 266.76 194.494C273.275 203.065 278.06 212.172 280.309 222.071L282.033 221.96Z" fill="#CCCCCC"/>
<path d="M283.757 222.07C288.025 211.472 295.164 209.377 306.695 209.901C292.675 213.079 289.67 216.945 286.037 222.07H283.757Z" fill="#CCCCCC"/>
<path d="M280.847 222.07C280.426 221.422 280.175 222.34 279.745 221.733C273.45 212.837 265.538 206.789 257.835 204.732C269.674 206.921 277.045 213.246 280.847 222.07Z" fill="#ECECEC"/>
<path d="M280.309 222.07C272.343 213.042 265.102 215.142 260.17 220.576C265.213 215.744 273.006 216.26 278.352 221.926L280.309 222.07Z" fill="#CCCCCC"/>
<path d="M286.037 222.071C290.336 214.527 299.1 214.915 310.116 219.302C301.086 216.963 292.483 216.546 288.052 221.839L286.037 222.071Z" fill="#ECECEC"/>
<path d="M271.269 221.084C271.154 221.653 271.096 224.265 271.096 224.843C271.096 230.142 275.874 234.439 281.768 234.439C287.663 234.439 292.441 230.142 292.441 224.843C292.44 224.265 292.381 221.653 292.266 221.084H271.269Z" fill="#999999"/>
<path d="M262.033 40.8773H300.152L318.664 69.7071L299.898 98.9339H304.497L324.58 67.6567L304.227 35.959H264.209L262.033 40.8773Z" fill="#CCCCCC"/>
<path d="M327.677 67.977L305.828 33.9473H262.128L240.274 67.977L262.128 102.008H305.828L327.677 67.977ZM322.896 67.977L303.435 98.2831H264.521L245.059 67.977L264.516 37.6707H303.435L322.896 67.977Z" fill="#E6E6E6"/>
<path d="M275.666 62.0201C274.355 62.0431 272.713 62.2865 270.686 62.7859C269.56 68.6571 272.755 70.2539 279.16 68.6753C280.262 69.9964 281.245 71.6977 281.991 73.5668C283.362 77.005 283.941 80.9874 283.161 84.1052L283.701 84.2155C284.517 80.9599 283.905 76.9099 282.506 73.4004C281.737 71.4707 280.734 69.7025 279.574 68.3212C280.785 64.5454 280.239 61.9424 275.666 62.0213" fill="#ECECEC"/>
<path d="M292.284 62.6326C293.596 62.6546 295.239 62.899 297.264 63.3972C298.391 69.2685 295.196 70.8653 288.79 69.2867C287.689 70.6079 286.705 72.3102 285.961 74.1794C284.59 77.6175 284.009 81.5999 284.791 84.7173L284.25 84.8277C283.435 81.5712 284.046 77.5223 285.445 74.0118C286.215 72.0821 287.217 70.314 288.378 68.9337C287.166 65.1579 287.712 62.5538 292.284 62.6326Z" fill="#ECECEC"/>
<path d="M293.691 72.8024C294.699 73.1341 295.896 73.7153 297.317 74.5857C296.452 79.3974 293.508 79.8681 289.02 77.1147C287.777 77.8737 286.512 78.9549 285.383 80.223C283.306 82.5539 281.679 85.4956 281.36 88.0942L280.91 88.0496C281.242 85.3359 282.913 82.3496 285.034 79.9688C286.2 78.6603 287.499 77.5324 288.805 76.7417C288.984 73.531 290.177 71.6477 293.691 72.8024Z" fill="#ECECEC"/>
<path d="M274.725 69.4922C273.674 69.6842 272.393 70.0981 270.844 70.7684C270.902 75.6421 273.735 76.5029 278.629 74.3818C279.733 75.2988 280.803 76.5371 281.709 77.9419C283.378 80.5258 284.499 83.6533 284.382 86.2647L284.835 86.2841C284.957 83.5564 283.8 80.3794 282.098 77.7412C281.162 76.2896 280.064 75.0008 278.903 74.0441C279.258 70.8456 278.39 68.8227 274.725 69.4929" fill="#ECECEC"/>
<path d="M274.102 84.0498H294.414L292.128 98.2671H276.338L274.102 84.0498Z" fill="#B3B3B3"/>
<path d="M273.463 81.8131C273.463 81.4516 273.623 81.1053 273.906 80.8505C274.191 80.5956 274.576 80.4521 274.977 80.4521H293.538C293.94 80.4521 294.325 80.5956 294.608 80.8505C294.893 81.1053 295.051 81.4516 295.051 81.8131V83.5146C295.051 83.875 294.893 84.2213 294.608 84.4762C294.325 84.7322 293.94 84.8748 293.538 84.8748H274.977C274.141 84.8748 273.463 84.2659 273.463 83.5146V81.8131Z" fill="#B3B3B3"/>
<path d="M262.033 108.938H300.152L318.664 137.768L299.898 166.994H304.497L324.58 135.717L304.227 104.02H264.209L262.033 108.938Z" fill="#CCCCCC"/>
<path d="M327.677 136.038L305.828 102.008H262.128L240.274 136.038L262.128 170.068H305.828L327.677 136.038ZM322.896 136.038L303.435 166.344H264.521L245.059 136.038L264.516 105.731H303.435L322.896 136.038Z" fill="#E6E6E6"/>
<path d="M299.629 162.959V166.344H268.322V162.959H299.629Z" fill="#241C1C"/>
<path d="M299.629 162.959V166.344H283.678V162.959H299.629Z" fill="#5FE26C"/>
<path d="M281.348 162.959V166.344H278.032V162.959H281.348Z" fill="#5FE26C"/>
<path d="M297.608 160.011V162.959H270.344V160.011H297.608Z" fill="#483737"/>
<path d="M290.316 160.011V162.959H283.717V160.011H290.316Z" fill="#CCCCCC"/>
<path d="M281.687 160.011V162.959H278.798V160.011H281.687Z" fill="#CCCCCC"/>
<path d="M295.315 155.538L295.314 160.012L272.637 160.008L272.638 155.534L295.315 155.538Z" fill="#5FE26C"/>
<path d="M287.095 155.537L287.094 160.012L283.76 160.011L283.762 155.536L287.095 155.537Z" fill="#F9F9F9"/>
<path d="M282.072 155.536L282.071 160.01H279.669L279.671 155.535L282.072 155.536Z" fill="#F9F9F9"/>
<path d="M274.617 142.112C273.514 143.772 272.929 145.698 272.929 147.664C272.929 150.707 274.328 153.597 276.757 155.565H290.759C293.186 153.597 294.587 150.707 294.587 147.664C294.587 145.698 294.002 143.772 292.9 142.112H274.617Z" fill="#CCCCCC"/>
<path d="M276.615 139.688C276.846 140.663 277.251 141.525 278.16 142.058C277.95 142.016 277.722 141.975 277.481 141.938C276.749 140.604 275.572 139.924 273.723 140.241C273.597 140.262 273.468 140.288 273.336 140.32C273.773 140.942 274.274 141.478 274.933 141.803C274.666 141.818 274.395 141.843 274.122 141.881C273.248 141.068 272.259 140.686 271.107 140.905C270.643 140.994 270.153 141.179 269.634 141.474C270.337 142.008 271.083 142.413 271.935 142.489C271.701 142.594 271.469 142.713 271.243 142.845C270.441 142.468 269.658 142.322 268.902 142.474C268.199 142.616 267.518 143.014 266.864 143.722C267.877 144.092 268.884 144.273 269.873 143.916C269.791 144 269.71 144.088 269.63 144.178C269.63 144.177 269.63 144.177 269.63 144.176C268.011 144.928 267.265 146.118 267.889 148C269.192 147.204 270.125 146.2 269.7 144.436C269.979 144.101 270.277 143.809 270.59 143.555C270.597 143.551 270.603 143.548 270.609 143.544C269.776 144.804 270.143 145.942 270.861 147.044C272.259 145.648 272.221 144.339 271.248 143.086C271.645 142.842 272.056 142.647 272.476 142.494C272.727 142.475 272.986 142.427 273.256 142.347C272.03 143.314 271.986 144.498 272.29 145.746C274.096 144.81 274.512 143.559 274.026 142.104C274.499 142.032 274.967 142 275.422 141.995C275.744 142.091 276.098 142.143 276.494 142.139C274.999 142.726 274.559 143.842 274.427 145.114C276.46 144.716 277.28 143.641 277.309 142.125C278.114 142.239 278.762 142.402 279.158 142.518C277.538 142.808 276.845 143.823 276.423 145.052C278.606 145.037 279.653 144.047 279.978 142.436C279.944 142.437 279.911 142.439 279.877 142.44C279.675 140.889 278.725 139.874 276.615 139.688Z" fill="#F2F2F2"/>
<path d="M270.275 136.256C270.639 137.531 271.286 138.605 272.888 139.001C272.412 139.03 271.916 139.09 271.399 139.187C270.194 137.994 268.711 137.654 266.8 138.629C268.029 139.653 269.411 140.277 271.362 139.405C271.665 139.347 271.96 139.3 272.248 139.266C270.953 139.704 270.362 140.673 269.995 141.813C272.197 141.762 273.273 140.778 273.619 139.189C274.377 139.194 275.075 139.284 275.715 139.43C273.971 139.516 273.088 140.485 272.454 141.711C274.628 141.961 275.856 141.145 276.469 139.638C277.142 139.854 277.741 140.131 278.265 140.434C276.538 140.23 275.473 141.035 274.6 142.133C276.643 142.728 278.004 142.167 278.917 140.845C279.507 141.252 279.975 141.671 280.322 142.026C280.399 142.133 280.487 142.24 280.584 142.347C278.901 141.75 277.638 142.328 276.495 143.244C278.46 144.418 280.706 143.339 281.236 142.956C281.291 142.927 281.309 142.863 281.276 142.813C282.196 141.165 281.36 139.553 280.239 138.686C279.83 139.6 279.623 140.507 279.974 141.396C279.759 141.207 279.518 141.012 279.249 140.817C279.594 139.191 278.997 137.901 276.937 137.129C276.837 138.141 276.943 139.09 277.622 139.863C277.335 139.73 277.028 139.606 276.705 139.497C276.687 137.876 275.829 136.732 273.673 136.322C273.798 137.46 274.161 138.479 275.252 139.127C274.797 139.048 274.316 138.999 273.81 138.986C273.52 137.383 272.478 136.368 270.276 136.256" fill="#F2F2F2"/>
<path d="M280.407 141.144C279.891 141.143 279.323 141.254 278.695 141.493C279.274 142.104 279.915 142.602 280.709 142.813C280.525 142.842 280.333 142.875 280.136 142.914C279.425 142.214 278.626 141.81 277.712 141.803C277.075 141.797 276.381 141.985 275.623 142.398C276.386 142.999 277.203 143.446 278.167 143.47C277.875 143.582 277.583 143.709 277.295 143.854C276.68 143.531 276.068 143.354 275.461 143.358C274.605 143.364 273.758 143.725 272.921 144.533C273.829 144.92 274.742 145.147 275.666 144.945C275.626 144.981 275.586 145.016 275.547 145.053C275.356 145.232 275.175 145.424 275.003 145.63C274.773 145.603 274.548 145.589 274.331 145.59C272.928 145.603 271.847 146.25 271.229 147.809C272.324 147.844 273.339 147.701 274.131 147.058C274.085 147.164 274.042 147.271 274.001 147.382C274 147.381 274 147.38 273.999 147.38C272.768 148.586 272.524 149.935 273.83 151.508C274.748 150.357 275.24 149.126 274.164 147.601C274.298 147.201 274.466 146.836 274.662 146.501C274.667 146.494 274.671 146.488 274.675 146.483C274.377 147.924 275.158 148.878 276.255 149.69C277.031 147.945 276.495 146.729 275.102 145.856C275.428 145.441 275.801 145.084 276.204 144.777C276.373 144.709 276.542 144.624 276.711 144.521C275.918 145.816 276.332 146.946 277.099 148.027C278.434 146.589 278.347 145.286 277.331 144.071C277.78 143.84 278.243 143.653 278.702 143.502C279.075 143.378 279.443 143.279 279.797 143.198C278.394 144.251 278.389 145.503 278.774 146.811C280.539 145.803 280.891 144.531 280.325 143.09C280.755 143.01 281.155 142.957 281.5 142.924C281.713 142.927 281.936 142.911 282.171 142.875C282.217 142.873 282.264 142.87 282.305 142.869C280.897 143.644 280.637 144.812 280.712 146.096C282.709 145.42 283.33 144.207 283.066 142.647C283.08 142.641 283.095 142.636 283.111 142.632C283.09 142.603 283.069 142.576 283.048 142.549C283.047 142.545 283.047 142.541 283.045 142.537C283.044 142.537 283.042 142.538 283.04 142.539C282.359 141.658 281.503 141.146 280.407 141.144Z" fill="#483737"/>
<path d="M293.197 138.834C291.106 139.236 290.292 140.359 290.302 141.943C290.16 142.007 290.026 142.071 289.895 142.134C290.338 141.518 290.471 140.775 290.479 139.981C288.417 140.551 287.722 141.747 287.901 143.345C287.895 143.347 287.889 143.348 287.884 143.35C287.89 143.36 287.898 143.371 287.905 143.381C287.905 143.389 287.906 143.396 287.907 143.404C287.911 143.403 287.914 143.402 287.918 143.401C288.83 144.781 290.18 145.372 292.215 144.728C291.313 143.651 290.218 142.883 288.442 143.215C288.874 143.037 289.218 142.822 289.492 142.579C289.714 142.459 289.959 142.333 290.226 142.209C290.818 143.661 291.999 144.445 294.087 144.196C293.439 142.957 292.526 141.994 290.655 142.02C290.984 141.881 291.336 141.749 291.709 141.632C292.167 141.489 292.653 141.369 293.16 141.288C293.27 142.772 294.138 143.796 296.161 144.121C295.976 142.855 295.489 141.755 293.971 141.218C294.142 141.215 294.302 141.2 294.457 141.178C295.002 141.174 295.561 141.225 296.125 141.351C295.705 142.804 296.173 144.03 297.995 144.908C298.249 143.684 298.175 142.529 297.003 141.607C297.369 141.741 297.734 141.908 298.098 142.115C298.346 143.942 299.611 144.611 301.151 144.967C301.032 143.043 299.92 142.148 298.172 141.913C298.009 141.821 297.845 141.739 297.681 141.662C298.775 141.719 299.673 141.236 300.503 140.565C299.738 140.161 299.043 139.981 298.406 139.993C297.498 140.011 296.71 140.417 296.012 141.116C295.752 141.065 295.493 141.028 295.236 141.004C295.208 141.002 295.18 141 295.152 140.998C295.986 140.679 296.567 140.046 297.05 139.294C296.651 139.214 296.281 139.177 295.941 139.178C294.471 139.181 293.528 139.902 292.946 141.114C292.611 141.174 292.284 141.25 291.971 141.336C292.798 140.714 293.091 139.821 293.197 138.834Z" fill="#483737"/>
<path d="M288.396 140.696C286.929 140.692 285.983 141.406 285.393 142.611C285.259 142.633 285.131 142.657 285.005 142.68C285.602 142.22 285.967 141.57 286.238 140.843C286.17 140.841 286.102 140.841 286.037 140.843C283.988 140.873 282.97 141.83 282.616 143.384C283.057 145.063 284.825 145.74 286.325 145.732C285.869 144.542 285.16 143.561 283.6 143.292C283.929 143.228 284.219 143.131 284.476 143.007C284.75 142.943 285.054 142.878 285.385 142.823C285.454 144.36 286.309 145.427 288.373 145.77C288.184 144.414 287.649 143.246 285.87 142.75C285.949 142.74 286.03 142.731 286.112 142.722C286.481 142.739 286.815 142.714 287.119 142.651C287.603 142.637 288.107 142.657 288.616 142.718C288.181 144.187 288.642 145.424 290.479 146.308C290.739 145.052 290.654 143.87 289.394 142.939C289.665 143.01 289.924 143.05 290.173 143.063C290.599 143.204 291.02 143.387 291.426 143.622C290.499 144.9 290.507 146.21 291.954 147.565C292.633 146.443 292.959 145.296 292.082 144.059C292.088 144.063 292.094 144.066 292.1 144.07C292.423 144.315 292.731 144.599 293.022 144.925C292.66 146.701 293.627 147.676 294.958 148.435C295.515 146.538 294.728 145.369 293.083 144.664C293.083 144.665 293.083 144.665 293.082 144.666C292.998 144.577 292.913 144.492 292.827 144.409C293.828 144.74 294.83 144.53 295.831 144.131C294.971 143.259 294.086 142.884 293.182 142.899C292.603 142.909 292.016 143.08 291.424 143.38C291.191 143.253 290.954 143.142 290.715 143.044C291.566 142.944 292.298 142.518 292.983 141.963C292.218 141.559 291.522 141.38 290.886 141.392C289.987 141.41 289.204 141.81 288.511 142.499C288.257 142.471 288.005 142.455 287.757 142.446C288.509 142.114 289.049 141.518 289.505 140.818C289.106 140.736 288.737 140.696 288.396 140.695" fill="#F2F2F2"/>
<path d="M295.32 133.562C293.15 133.977 292.296 135.134 292.29 136.771C291.692 136.897 291.142 137.069 290.638 137.273C291.69 136.476 291.89 135.389 291.818 134.209C289.699 134.93 289.067 136.229 289.384 137.897C288.981 138.137 288.62 138.396 288.295 138.66C288.927 137.592 288.68 136.526 288.151 135.461C286.491 136.791 286.389 138.18 287.292 139.608C287.103 139.816 286.938 140.017 286.792 140.206C287.096 139.098 286.62 138.139 285.888 137.228C284.561 138.838 284.781 140.219 285.999 141.453C285.995 141.463 285.976 141.499 285.976 141.499C285.952 141.552 285.981 141.612 286.04 141.634C286.098 141.655 286.166 141.629 286.189 141.576C286.189 141.576 286.22 141.511 286.277 141.402C287.836 142.148 289.346 142.017 290.779 140.545C290.722 140.523 290.666 140.503 290.609 140.481C291.051 140.378 291.514 140.19 292.003 139.909C290.901 139.085 289.705 138.56 288.196 139.028C288.219 139.007 288.24 138.987 288.263 138.967C288.666 138.62 289.136 138.28 289.675 137.972C290.539 139.314 291.877 139.912 293.936 139.378C293.13 138.29 292.134 137.471 290.496 137.56C291.103 137.292 291.782 137.073 292.541 136.931C293.161 138.412 294.387 139.211 296.541 138.961C295.995 137.905 295.263 137.038 293.954 136.766C294.35 136.746 294.762 136.746 295.195 136.77C297.272 137.363 298.53 136.557 299.571 135.377C298.972 135.172 298.428 135.073 297.933 135.069C296.732 135.058 295.821 135.607 295.121 136.559C294.455 136.528 293.832 136.55 293.249 136.617C294.73 136.001 295.178 134.859 295.32 133.562ZM287.514 139.692C287.724 139.866 287.94 140.015 288.162 140.141C287.657 140.225 287.154 140.425 286.65 140.785C286.86 140.472 287.142 140.093 287.514 139.692Z" fill="#F2F2F2"/>
<path d="M276.454 133.811C276.596 135.107 277.045 136.247 278.522 136.864C277.941 136.798 277.318 136.777 276.654 136.807C275.665 135.463 274.257 134.924 272.203 135.626C273.244 136.805 274.503 137.611 276.578 137.019C277.003 136.995 277.412 136.994 277.802 137.013C276.545 137.21 275.758 137.992 275.128 138.966C277.284 139.4 278.594 138.676 279.359 137.203C280.028 137.337 280.634 137.531 281.181 137.764C279.679 137.524 278.596 138.172 277.643 139.09C279.615 139.932 281.061 139.507 282.164 138.257C282.676 138.555 283.124 138.882 283.511 139.216C283.601 139.293 283.688 139.371 283.771 139.449C282.227 138.695 280.908 139.11 279.653 139.861C281.366 141.095 282.888 140.973 284.287 139.969C284.815 140.546 285.162 141.071 285.364 141.416C283.968 140.373 282.565 140.57 281.162 141.12C282.746 142.366 284.489 142.585 285.887 141.865C285.876 141.856 285.867 141.846 285.856 141.837C287.061 140.606 287.276 139.229 285.953 137.625C285.241 138.51 284.773 139.443 285.026 140.514C284.875 140.314 284.702 140.101 284.503 139.88C285.399 138.428 285.281 137.03 283.582 135.718C283.072 136.795 282.847 137.868 283.509 138.93C283.162 138.646 282.77 138.368 282.333 138.11C282.603 136.492 281.954 135.233 279.88 134.527C279.814 135.616 279.98 136.627 280.834 137.404C280.414 137.25 279.966 137.118 279.484 137.017C279.479 135.381 278.624 134.225 276.454 133.811Z" fill="#483737"/>
<path d="M82.2216 209.72C77.4781 192.063 84.802 175.578 108.516 163.021C95.1285 175.861 86.9766 193.316 82.2216 209.72Z" fill="#241C1C"/>
<path d="M82.0092 224.535C89.6174 198.651 79.4027 174.152 44.8986 154.976C64.1766 174.278 75.5765 200.229 82.0092 224.535Z" fill="#5FE26C"/>
<path d="M79.5582 252.806C90.3529 217.246 76.5914 183.414 29.3232 156.669C55.6264 183.436 71.0021 219.278 79.5582 252.806Z" fill="#CCCCCC"/>
<path d="M79.5581 252.806C68.763 217.246 82.5249 183.414 129.794 156.669C103.49 183.436 88.1137 219.278 79.5581 252.806Z" fill="#E6E6E6"/>
<path d="M79.5581 252.807C78.5846 226.049 94.6384 204.227 133.04 192.48C109.447 207.413 91.8767 230.412 79.5581 252.807Z" fill="#483737"/>
<path d="M79.5581 252.806C82.9352 226.207 68.8973 203.289 31.6776 188.788C53.8504 205.388 69.2944 229.589 79.5581 252.806Z" fill="#483737"/>
<path d="M79.5581 252.807C78.8979 234.652 89.7897 219.847 115.845 211.876C99.8373 222.009 87.9163 237.612 79.5581 252.807Z" fill="#241C1C"/>
<path d="M64.7109 237.875C62.2445 237.875 61.5173 238.556 62.6441 240.845C70.465 256.734 69.3184 271.698 65.2786 286.276H97.0711C93.4651 271.851 92.5999 257.081 99.8882 241.343C101.258 238.386 100.363 237.875 97.5825 237.875H64.7109Z" fill="#184B05"/>
<path d="M167.143 124.649L160.789 126.201L163.537 137.713L174.027 154.752H186.547L200.194 130.818L196.599 125.555L191.773 124.767L167.143 124.649Z" fill="#FFB380"/>
<path d="M185.499 40.1046C138.935 36.7471 144.068 72.7021 139.729 89.4168C138.229 95.1977 129.006 102 133.319 114.861C134.114 117.228 139.74 119.892 145.16 119.593C144.214 115.304 145.556 112.709 147.603 110.636C146.748 114.363 146.599 118.438 148.543 121.79C159.568 124.831 197.527 125.123 212.63 120.776C214.601 117.834 214.062 113.573 212.687 110.806C215.786 113.395 215.754 115.984 216.941 118.573C219.392 118.597 225.068 116.79 225.844 113.435C227.034 108.296 225.463 103.238 221.592 98.1395C219.061 94.8077 222.948 91.5256 222.123 87.6249C220.753 81.1462 215.247 76.3572 213.485 62.6508C211.913 50.4271 201.747 40.7217 185.499 40.1046Z" fill="#241C1C"/>
<path d="M168.086 111.131H190.347L193.973 127.798C184.085 131.24 174.326 132.03 164.809 127.798L168.086 111.131Z" fill="#FFB380"/>
<path d="M154.117 60.1162V95.7611C154.117 106.715 163.926 115.535 176.108 115.535H182.325C194.508 115.535 204.316 106.715 204.316 95.7611V60.1162H154.117Z" fill="#FFB380"/>
<path d="M204.06 91.4408C204.419 91.4884 204.782 91.5133 205.144 91.5133C207.106 91.5133 208.986 90.8122 210.374 89.5653C211.761 88.3181 212.539 86.6273 212.539 84.8641C212.539 83.1004 211.761 81.4095 210.374 80.1616C208.987 78.9148 207.106 78.2148 205.144 78.2148C204.782 78.2148 204.419 78.2393 204.06 78.2868V91.4408Z" fill="#FFB380"/>
<path d="M155.062 91.4408C154.702 91.4884 154.34 91.5133 153.976 91.5133C152.015 91.5133 150.135 90.8122 148.748 89.5653C147.361 88.3181 146.582 86.6273 146.582 84.8641C146.582 83.1004 147.36 81.4095 148.748 80.1616C150.135 78.9148 152.015 78.2148 153.976 78.2148C154.34 78.2148 154.702 78.2393 155.062 78.2868V91.4408Z" fill="#FFB380"/>
<path d="M167.413 113.968C175.531 116.215 183.418 116.483 190.979 113.968C182.208 118.282 174.614 117.051 167.413 113.968Z" fill="#FF9955"/>
<path d="M146.61 84.0992C146.586 79.746 153.372 76.7578 155.145 83.459C158.071 66.9993 181.782 74.9343 188.9 60.4975C195.537 71.0092 200.62 71.9346 203.562 83.459C205.399 77.5956 211.543 79.4064 212.474 84.0992C216.241 69.8793 210.535 59.5854 200.595 53.0312H162.852C150.13 55.7553 144.849 69.6234 146.61 84.0992Z" fill="#241C1C"/>
<path d="M180.684 45.4103C180.394 45.413 180.106 45.4177 179.819 45.4255C171.77 45.6299 164.546 47.7595 158.643 53.1162C151.897 59.2375 146.883 69.557 144.286 86.0016C143.497 91.0016 140.179 95.7173 137.597 100.594C135.014 105.47 133.17 110.52 135.389 116.166C135.4 116.194 135.422 116.217 135.453 116.23C135.482 116.243 135.516 116.244 135.547 116.235C135.579 116.225 135.604 116.204 135.618 116.178C135.633 116.15 135.635 116.12 135.623 116.092C133.434 110.522 135.246 105.549 137.821 100.69C140.395 95.8305 143.732 91.0997 144.533 86.0332C147.125 69.615 152.127 59.3441 158.819 53.2729C165.509 47.201 173.893 45.3122 183.307 45.6756C183.339 45.6763 183.371 45.666 183.395 45.6463C183.42 45.6262 183.435 45.5987 183.436 45.5682C183.438 45.5073 183.385 45.4549 183.317 45.452C182.431 45.4177 181.553 45.4036 180.684 45.4103ZM187.294 45.5987C187.291 45.5987 187.289 45.5987 187.287 45.5987C187.226 45.6032 187.178 45.6463 187.172 45.7001C187.165 45.7611 187.216 45.8153 187.284 45.8219C194.806 46.4573 199.573 48.8778 202.995 53.3082C206.417 57.7383 208.485 64.1937 210.535 72.8781C212.523 81.3014 217.883 87.3781 216.64 97.5996C215.371 103.2 217.115 108.446 221.175 113.394C221.194 113.418 221.224 113.434 221.256 113.438C221.288 113.443 221.322 113.436 221.348 113.417C221.375 113.4 221.393 113.374 221.397 113.344C221.402 113.315 221.394 113.285 221.375 113.262C217.342 108.346 215.627 103.172 216.886 97.6348C216.886 97.631 216.886 97.6272 216.886 97.6243C218.138 87.3239 212.75 81.1966 210.775 72.8317C208.723 64.1394 206.656 57.6596 203.197 53.1809C199.737 48.7021 194.875 46.2384 187.305 45.5987C187.302 45.5987 187.298 45.5987 187.294 45.5987ZM183.684 50.6909C183.681 50.6909 183.679 50.6909 183.676 50.6909C171.465 51.6383 164.456 55.9885 160.042 61.3719C155.627 66.7549 153.799 73.1627 151.901 78.2273C151.891 78.256 151.894 78.2864 151.909 78.3128C151.922 78.3396 151.949 78.3596 151.98 78.369C152.011 78.3786 152.045 78.3756 152.075 78.3622C152.104 78.3499 152.126 78.3262 152.137 78.2976C154.04 73.2207 155.864 66.8434 160.242 61.5049C164.62 56.1653 171.543 51.8567 183.697 50.9134C183.731 50.9115 183.76 50.8971 183.782 50.8744C183.804 50.8513 183.813 50.822 183.811 50.7926C183.806 50.7336 183.75 50.689 183.684 50.6909ZM189.139 51.0286C189.078 51.0286 189.026 51.0665 189.015 51.1207C189.009 51.1493 189.016 51.1797 189.035 51.2043C189.055 51.2281 189.083 51.2452 189.115 51.25C194.793 52.1877 198.834 56.1471 201.832 61.2775C204.831 66.408 206.775 72.6986 208.257 78.2542C208.265 78.2823 208.285 78.3072 208.313 78.3232C208.342 78.3384 208.376 78.3433 208.408 78.3366C208.44 78.3292 208.468 78.3109 208.485 78.2854C208.502 78.2604 208.507 78.2304 208.5 78.2006C207.016 72.6403 205.069 66.3355 202.054 61.1739C199.037 56.0122 194.939 51.9841 189.16 51.0304C189.153 51.0293 189.145 51.0286 189.138 51.0286H189.139ZM183.216 55.1952C183.213 55.1952 183.21 55.1952 183.207 55.1952C183.154 55.1982 183.11 55.2313 183.095 55.277C182.034 58.626 180.438 60.7021 178.493 62.1372C176.547 63.5724 174.244 64.3686 171.765 65.1314C166.808 66.658 161.151 68.0579 156.401 74.2431C156.363 74.2936 156.377 74.3631 156.434 74.3981C156.49 74.4334 156.567 74.4211 156.606 74.3706C161.314 68.2396 166.878 66.872 171.847 65.3428C174.33 64.5789 176.665 63.7753 178.65 62.3104C180.635 60.8458 182.263 58.72 183.335 55.3379C183.353 55.2788 183.315 55.2172 183.249 55.2001C183.239 55.1971 183.227 55.1952 183.217 55.1952H183.216ZM189.417 55.844C189.372 55.8447 189.331 55.8678 189.309 55.9037C189.294 55.9294 189.29 55.961 189.3 55.9896C189.309 56.0178 189.332 56.0416 189.361 56.0561C197.471 59.9252 199.557 68.3365 203.593 75.357C203.624 75.412 203.698 75.4331 203.76 75.4052C203.789 75.3911 203.811 75.3685 203.821 75.3399C203.831 75.3112 203.829 75.2808 203.813 75.2541C199.798 68.2712 197.704 59.7814 189.478 55.8573C189.46 55.8487 189.438 55.844 189.417 55.844ZM149.325 91.9995C149.265 91.9995 149.213 92.0393 149.204 92.0935C148.316 97.0489 145.266 100.695 142.854 104.453C140.442 108.212 138.68 112.096 140.436 117.475C140.445 117.503 140.467 117.527 140.496 117.542C140.525 117.556 140.559 117.56 140.59 117.551C140.622 117.542 140.649 117.523 140.664 117.497C140.68 117.471 140.684 117.441 140.675 117.412C138.94 112.1 140.669 108.307 143.07 104.566C145.47 100.823 148.551 97.1468 149.449 92.1289C149.454 92.0991 149.447 92.0697 149.427 92.0453C149.408 92.0215 149.378 92.0051 149.347 92.0003C149.339 91.9995 149.333 91.9995 149.325 91.9995ZM210.055 93.314C209.99 93.3159 209.938 93.3615 209.935 93.4195C209.935 93.4195 209.534 99.7672 211.533 106.837C211.55 106.896 211.618 106.932 211.684 106.917C211.75 106.901 211.79 106.841 211.775 106.782C209.786 99.75 210.183 93.4318 210.183 93.4318C210.187 93.3701 210.134 93.3178 210.066 93.314C210.062 93.314 210.059 93.314 210.055 93.314ZM204.21 102.275C204.202 102.275 204.192 102.276 204.183 102.278C204.151 102.285 204.124 102.303 204.106 102.328C204.089 102.353 204.082 102.384 204.09 102.413C205.688 108.595 207.101 114.769 204.889 121.234C204.88 121.262 204.883 121.293 204.898 121.319C204.914 121.345 204.94 121.365 204.972 121.374C205.038 121.392 205.106 121.359 205.127 121.3C207.361 114.772 205.93 108.548 204.332 102.362C204.319 102.311 204.269 102.275 204.21 102.275ZM154.643 103.59C154.59 103.59 154.543 103.62 154.525 103.665C150.393 114.215 153.998 121.551 153.998 121.551C154.025 121.608 154.099 121.633 154.162 121.608C154.191 121.596 154.216 121.574 154.227 121.547C154.239 121.519 154.238 121.488 154.225 121.461C154.225 121.461 150.653 114.22 154.759 103.739C154.783 103.681 154.749 103.617 154.684 103.596C154.67 103.593 154.658 103.59 154.644 103.59" fill="#483737"/>
<path d="M178.849 82.2878C178.809 82.2867 178.77 82.2896 178.731 82.2971C178.446 82.3484 178.262 82.5988 178.319 82.8544C178.319 82.8544 179.068 86.2052 177.035 89.5512C176.513 90.4091 176.165 91.2431 176.05 92.0278C175.934 92.8117 176.057 93.5622 176.518 94.1652C176.979 94.7682 177.753 95.18 178.774 95.3626C179.794 95.5452 181.076 95.5186 182.678 95.257C182.817 95.2351 182.938 95.1647 183.018 95.061C183.098 94.9573 183.129 94.8298 183.103 94.7061C183.052 94.4486 182.778 94.2781 182.491 94.3249C180.974 94.572 179.811 94.5828 178.979 94.4342C178.149 94.2849 177.666 93.9957 177.386 93.6287C177.106 93.2617 177.002 92.7756 177.094 92.1527C177.186 91.5296 177.482 90.7895 177.958 90.0059C180.186 86.3393 179.352 82.6671 179.352 82.6671C179.303 82.4502 179.094 82.2934 178.849 82.2878Z" fill="#FF9955"/>
<path d="M174.778 102.909C178.002 100.028 180.938 100.104 184.402 103.003C184.634 103.236 184.358 103.658 184.016 103.591C180.894 102.844 177.92 102.834 175.096 103.564C174.641 103.629 174.495 103.142 174.778 102.909Z" fill="#FF5555"/>
<path d="M164.946 84.0073C164.946 82.513 166.292 81.3022 167.954 81.3022C169.615 81.3022 170.962 82.513 170.962 84.0073C170.962 85.5016 169.615 86.7124 167.954 86.7124C166.292 86.7124 164.946 85.5016 164.946 84.0073Z" fill="#241C1C"/>
<path d="M173.092 75.3482C172.845 75.3938 172.64 75.545 172.542 75.7542C172.427 75.9976 172.423 76.0299 172.304 76.0927C172.184 76.1547 171.793 76.265 170.876 76.1792C168.611 75.9671 165.122 76.6244 162.317 77.8875C162.136 77.9692 161.998 78.113 161.934 78.2862C161.87 78.4593 161.886 78.6484 161.977 78.8112C162.067 78.9747 162.226 79.0984 162.419 79.1563C162.612 79.2142 162.822 79.2002 163.004 79.1184C165.522 77.9838 168.984 77.3853 170.716 77.5469C171.797 77.648 172.52 77.5706 173.073 77.2827C173.625 76.9944 173.848 76.5121 173.953 76.2888C174.031 76.1202 174.032 75.9311 173.956 75.7616C173.88 75.5926 173.731 75.4585 173.544 75.3872C173.402 75.3329 173.244 75.3195 173.092 75.3482Z" fill="#241C1C"/>
<path d="M194.176 84.0254C194.176 82.5311 192.829 81.3203 191.168 81.3203C189.506 81.3203 188.16 82.5311 188.16 84.0254C188.16 85.5186 189.506 86.7301 191.168 86.7301C192.829 86.7301 194.176 85.5186 194.176 84.0254Z" fill="#241C1C"/>
<path d="M186.029 75.3656C186.276 75.4112 186.482 75.5632 186.579 75.7716C186.694 76.016 186.699 76.0484 186.817 76.1101C186.937 76.1729 187.328 76.2825 188.246 76.1967C190.51 75.9856 194 76.6418 196.804 77.906C196.986 77.9878 197.123 78.1305 197.187 78.3043C197.251 78.4774 197.236 78.6658 197.145 78.8293C197.055 78.9931 196.895 79.1165 196.702 79.1748C196.51 79.2317 196.299 79.2183 196.118 79.1366C193.6 78.0019 190.137 77.4037 188.405 77.5653C187.325 77.666 186.6 77.5891 186.049 77.3C185.497 77.0118 185.274 76.5307 185.169 76.3062C185.09 76.138 185.089 75.9484 185.165 75.7802C185.242 75.6108 185.39 75.4759 185.578 75.4053C185.72 75.351 185.878 75.338 186.029 75.3656Z" fill="#241C1C"/>
<path d="M251.774 286.576H125.189C129.098 270.43 133.033 256.502 138.864 252.266C139.162 248.175 140.554 244.395 141.202 239.21H235.065C241.924 247.639 241.269 250.763 238.154 252.152C244.972 264.394 248.317 275.466 251.774 286.576Z" fill="#241C1C"/>
<path d="M141.202 239.21C140.554 244.395 139.162 248.175 138.864 252.266C166.762 258.793 210.225 258.668 238.154 252.152C241.269 250.763 241.924 247.639 235.064 239.21H141.202Z" fill="#483737"/>
<path d="M154.89 241.475C153.858 245.873 154.132 250.669 152.672 256.333C152.448 257.076 156.331 257.479 156.392 256.77C157.467 251.249 156.718 245.08 158.339 241.63L154.89 241.475Z" fill="#241C1C"/>
<path d="M216.505 241.475C217.537 245.873 217.263 250.669 218.723 256.333C218.947 257.076 215.064 257.479 215.003 256.77C213.928 251.249 214.677 245.08 213.057 241.63L216.505 241.475Z" fill="#241C1C"/>
<path d="M143.617 254.055C138.303 263.394 135.024 282.809 127.195 285.729C135.337 279.572 138.259 260.158 143.617 254.055Z" fill="#483737"/>
<path d="M229.525 254.055C235.971 262.375 242.488 281.499 250.318 284.418C241.041 277.971 236.258 260.158 229.525 254.055Z" fill="#483737"/>
<path d="M187.68 258.173C191.798 267.258 189.096 277.277 188.138 286.164C188.301 276.756 190.555 267.894 187.68 258.173Z" fill="#483737"/>
<path d="M147.808 130.666C138.393 133.744 122.203 137.26 113.878 141.564C109.475 143.225 104.887 154.025 100.602 172.561C94.4485 189.256 92.9609 197.824 91.5841 206.197C88.0096 212.377 91.3053 218.627 95.3608 226.985C97.4189 237.043 108.067 243.948 119.239 234.151C124.72 232.485 128.557 231.085 134.04 229.332L136.73 233.599C137.038 237.325 136.75 241.592 141.607 240.302C148.097 242.566 165.943 242.239 177.378 243.723C187.659 245.061 198.6 243.582 207.882 242.222C211.404 242.01 215.593 242.758 219.842 241.604C228.714 243.582 235.669 243.152 237.554 237.012C240.633 238.554 242.608 240.112 246.305 241.852C252.114 244.586 258.957 239.714 262.648 233.899C264.89 230.368 269.207 224.632 265.486 217.471C262.591 199.056 260.047 154.02 247.109 141.775C242.682 137.832 220.485 133.596 210.143 130.666C204.729 126.292 196.206 123.746 193.344 124.9L193.454 125.424C195.78 126.103 197.446 131.732 192.266 136.066C184.872 142.251 189.714 149.302 180.471 154.438C170.456 149.317 177.573 140.185 167.907 136.066C162.645 133.34 162.511 126.649 165.275 125.401L165.371 124.885C160.998 124.216 151.785 128.379 147.808 130.666Z" fill="#83DF75"/>
<path d="M134.04 229.332C136.342 228.628 138.516 227.286 140.716 226.076C139.468 230.911 139.618 235.662 141.607 240.302C136.962 241.623 136.979 237.455 136.731 233.598L134.04 229.332Z" fill="#184B05"/>
<path d="M156.538 210.958C155.819 213.106 156.227 215.666 155.431 217.488C154.609 219.369 152.795 219.624 151.48 222.292C152.131 219.976 153.954 219.254 154.999 217.319C155.862 215.723 155.4 212.943 156.538 210.958Z" fill="#184B05"/>
<path d="M151.318 215.197C151.088 217.896 151.261 221.045 151.159 223.492C151.145 223.821 151.092 224.13 150.757 224.336C150.392 224.56 149.901 224.797 149.78 225.276C149.976 224.871 150.753 224.8 151.241 224.591C151.724 224.385 151.642 224.015 151.642 223.629C151.641 220.633 151.437 217.927 151.318 215.197Z" fill="#184B05"/>
<path d="M134.849 221.892C135.838 226.551 144.948 227.007 149.78 225.276C142.435 226.596 136.187 225.026 134.849 221.892Z" fill="#184B05"/>
<path d="M150.226 190.637C148.333 190.189 136.777 193.939 133.17 197.602C134.916 193.627 149.842 189.369 150.226 190.637Z" fill="#184B05"/>
<path d="M134.525 196.168C126.071 199.068 115.398 199.571 110.933 208.211C115.116 201.605 125.909 199.562 134.525 196.168Z" fill="#184B05"/>
<path d="M113.878 141.563C127.695 146.816 126.621 176.692 127.021 196.631C124.114 175.336 128.911 152.992 113.878 141.563Z" fill="#184B05"/>
<path d="M100.602 172.562C100.541 176.129 102.417 179.311 103.602 182.63C102.137 179.645 98.3184 178.421 100.602 172.562Z" fill="#184B05"/>
<path d="M124.045 198.969C117.286 194.847 110.06 191.7 106.078 181.795C110.408 189.292 117.362 193.986 124.045 198.969Z" fill="#184B05"/>
<path d="M91.5841 206.196C93.4935 200.375 98.7547 198.523 103.487 198.89C98.5873 200.288 94.2324 202.292 91.5841 206.196Z" fill="#184B05"/>
<path d="M116.761 201.953C105.802 202.496 94.8426 203.037 93.715 211.348C98.1981 205.519 107.519 203.77 116.761 201.953Z" fill="#184B05"/>
<path d="M133.17 197.602C133.913 204.814 132.549 214.733 134.849 221.892C131.622 214.595 132.959 206.378 133.17 197.602Z" fill="#184B05"/>
<path d="M119.239 234.149C114.374 235.55 112.332 238.418 106.764 238.787C112.928 239.447 116.595 236.436 119.239 234.149Z" fill="#184B05"/>
<path d="M135.78 225.894C129.238 228.431 122.591 230.735 115.304 231.643L135.78 225.894Z" fill="#184B05"/>
<path d="M246.5 141.623C236.94 158.891 235.394 182.499 231.662 201.09C233.718 186.033 234.578 156.185 246.5 141.623Z" fill="#184B05"/>
<path d="M202.992 210.685C202.024 212.849 201.321 217.603 202.416 219.992C202.105 216.976 202.55 213.58 202.992 210.685Z" fill="#184B05"/>
<path d="M207.443 188.126C208.922 186.805 228.413 196.187 227.968 197.866C225.132 194.838 211.534 188.942 207.443 188.126Z" fill="#184B05"/>
<path d="M199.357 206.219C197.388 221.58 205.353 225.556 217.438 223.201C207.576 224.268 198.559 223.244 199.357 206.219Z" fill="#184B05"/>
<path d="M227.968 197.867C234.352 200.069 236.369 205.437 239.653 209.885C236.133 205.542 233.296 200.584 227.968 197.867Z" fill="#184B05"/>
<path d="M233.544 201.662C242.728 203.874 245.321 209.852 247.539 216.7C245.783 210.113 245.12 204.086 233.544 201.662Z" fill="#184B05"/>
<path d="M243.191 206.305C252.575 207.026 253.293 212.698 252.118 219.683C252.178 212.751 249.729 207.283 243.191 206.305Z" fill="#184B05"/>
<path d="M250.058 208.466C255.176 210.776 264.608 213.591 261.617 219.375C260.335 213.626 254.979 211.224 250.058 208.466Z" fill="#184B05"/>
<path d="M265.486 217.471C263.907 210.322 257.013 209.177 251.008 207.026C256.635 209.839 262.753 212.242 265.486 217.471Z" fill="#184B05"/>
<path d="M212.572 223.611C219.226 228.9 228.644 232.83 237.554 237.012C235.524 243.564 227.075 243.333 219.842 241.603C238.674 242.887 219.632 229.853 212.572 223.611Z" fill="#184B05"/>
<path d="M227.968 197.867C228.961 201.91 225.883 219.702 217.438 223.201C224.581 217.615 227.865 206.245 227.968 197.867Z" fill="#184B05"/>
<path d="M217.438 223.201C225.414 228.576 232.946 231.758 240.503 235.062L217.438 223.201Z" fill="#184B05"/>
<path d="M147.808 130.665C148.102 134.288 149.574 137.629 151.942 141.111C149.01 138.091 147.76 134.832 147.808 130.665Z" fill="#184B05"/>
<path d="M167.99 141.63L163.459 136.86C158.669 137.025 156.98 137.965 151.942 141.111C157.762 139.442 160.654 138.523 167.99 141.63Z" fill="#184B05"/>
<path d="M210.143 130.665C211.063 133.633 211.776 138.211 211.431 141.911C212.462 138.891 211.769 133.049 210.143 130.665Z" fill="#184B05"/>
<path d="M190.802 141.689L195.332 136.92C200.123 137.084 206.394 138.766 211.431 141.911C205.611 140.242 198.138 138.583 190.802 141.689Z" fill="#184B05"/>
<path d="M167.99 141.63C167.975 149.843 171.331 153.028 178.152 157.613C171.889 152.659 168.603 149.716 167.99 141.63Z" fill="#184B05"/>
<path d="M180.471 154.438C184.577 175.357 190.925 227.713 187.146 243.405C188.963 218.478 183.228 179.692 180.471 154.438Z" fill="#184B05"/>
<path d="M149.907 191.144C147.894 192.148 151.941 205.333 150.994 215.574C161.134 207.481 175.197 195.492 179.532 189.226C180.277 188.014 181.101 186.529 181.524 185.028C181.979 187.023 182.875 189.182 185.047 191C191.2 197.266 196.993 203.951 202.395 211.086C204.497 201.139 208.239 190.973 206.823 188.647C201.992 186.173 197.432 183.446 195.874 177.934C195.293 171.758 195.39 167.254 195.392 162.517C195.38 160.399 193.48 158.623 192.251 156.725C191.279 153.342 190.649 150.304 189.131 146.369C187.471 142.619 185.415 138.08 185.023 136.243C185.005 134.782 185.384 133.098 184.646 132.718C184.651 131.887 184.98 130.234 183.991 129.699C182.285 128.773 180.526 130.088 180.015 132.188C179.02 130.297 176.946 129.774 175.808 130.806C175.047 131.495 175.687 133.449 175.681 134.824C175.6 139.048 173.376 143.15 172.126 147.243C170.591 150.085 170.551 154.565 169.067 158.318C167.72 161.061 166.848 163.589 166.846 166.453C166.47 171.77 167.001 175.865 165.283 180.359C163.469 185.106 156.443 188.034 149.907 191.144Z" fill="#FFB380"/>
<path d="M180.008 132.051C179.938 132.054 179.879 132.099 179.866 132.161C179.621 133.3 179.718 134.569 179.67 135.758C179.667 135.834 179.732 135.897 179.816 135.9C179.899 135.903 179.97 135.844 179.973 135.769C180.022 134.56 179.931 133.301 180.165 132.213C180.172 132.177 180.164 132.14 180.142 132.111C180.118 132.08 180.083 132.059 180.044 132.053C180.032 132.051 180.02 132.05 180.008 132.051Z" fill="#FF9955"/>
<path d="M178.017 134.428C177.368 134.348 176.626 134.506 175.819 134.967C175.748 135.008 175.726 135.092 175.771 135.156C175.816 135.219 175.911 135.238 175.981 135.198C176.999 134.617 177.834 134.565 178.507 134.836C179.182 135.107 179.712 135.72 180.054 136.525C180.069 136.559 180.097 136.585 180.134 136.601C180.171 136.616 180.213 136.617 180.251 136.604C180.329 136.577 180.368 136.498 180.338 136.428C179.979 135.578 179.408 134.898 178.632 134.586C178.439 134.508 178.233 134.455 178.017 134.428Z" fill="#FF9955"/>
<path d="M182.661 133.947C182.123 133.963 181.623 134.178 181.208 134.524C180.378 135.215 179.872 136.425 179.995 137.727C180.272 140.661 180.279 143.749 180.897 146.31C180.915 146.384 180.995 146.43 181.078 146.415C181.159 146.399 181.211 146.327 181.194 146.252C180.587 143.736 180.576 140.652 180.297 137.704C180.182 136.48 180.671 135.344 181.414 134.725C181.787 134.415 182.217 134.234 182.672 134.22C183.128 134.206 183.615 134.357 184.112 134.742C184.175 134.791 184.271 134.786 184.326 134.729C184.381 134.672 184.374 134.585 184.31 134.536C183.769 134.114 183.201 133.93 182.661 133.947Z" fill="#FF9955"/>
<path d="M183.774 143.039C183.337 143.002 182.881 143.083 182.463 143.299C181.628 143.73 180.965 144.693 180.893 146.277C180.663 151.364 181.803 157.943 182.855 162.305C182.434 163.784 182.391 166.523 182.286 170.361C182.181 174.224 182.018 179.185 181.373 185.014C181.366 185.089 181.426 185.156 181.509 185.164C181.593 185.171 181.667 185.117 181.675 185.042C182.322 179.201 182.485 174.233 182.59 170.367C182.695 166.502 182.75 163.73 183.156 162.337C183.163 162.316 183.163 162.294 183.157 162.273C182.108 157.929 180.969 151.338 181.197 146.288C181.266 144.768 181.888 143.912 182.615 143.536C183.341 143.161 184.191 143.257 184.767 143.692C184.799 143.716 184.838 143.728 184.879 143.725C184.92 143.721 184.957 143.704 184.982 143.675C185.036 143.618 185.028 143.532 184.963 143.483C184.627 143.229 184.211 143.075 183.774 143.039Z" fill="#FF9955"/>
<path d="M184.213 134.502C184.169 134.502 184.126 134.519 184.098 134.548C184.042 134.605 184.048 134.692 184.111 134.741C184.195 134.809 184.293 135.031 184.34 135.352C184.388 135.671 184.396 136.082 184.381 136.528C184.352 137.421 184.227 138.456 184.131 139.229C184.13 139.241 184.13 139.253 184.132 139.266C184.702 142.574 186.565 146.113 187.95 149.54C189.663 153.777 190.371 157.274 191.681 159.115C191.727 159.179 191.82 159.197 191.89 159.156C191.961 159.116 191.981 159.032 191.937 158.968C190.696 157.223 189.958 153.705 188.236 149.446C186.845 146.007 184.998 142.48 184.435 139.236C184.531 138.465 184.656 137.439 184.686 136.537C184.701 136.082 184.692 135.661 184.642 135.316C184.592 134.971 184.515 134.697 184.313 134.537C184.285 134.515 184.25 134.502 184.213 134.502Z" fill="#FF9955"/>
<path d="M184.855 143.451C184.848 143.452 184.84 143.453 184.833 143.454C184.794 143.461 184.759 143.483 184.738 143.513C184.716 143.544 184.708 143.581 184.717 143.617C185.023 144.89 184.896 146.114 184.646 147.336C184.643 147.351 184.643 147.367 184.646 147.384C185.616 152.559 187.802 157.481 189.523 162.648C189.535 162.683 189.561 162.713 189.597 162.73C189.633 162.747 189.674 162.751 189.714 162.74C189.793 162.718 189.838 162.642 189.815 162.57C188.09 157.395 185.914 152.486 184.949 147.355C185.199 146.126 185.33 144.872 185.014 143.559C184.999 143.493 184.93 143.447 184.855 143.452" fill="#FF9955"/>
<path d="M177.111 144.032C176.602 144.097 176.11 144.338 175.669 144.755L175.607 144.814L176.811 148.164C177.476 153.495 176.267 158.984 175.174 164.479L175.474 164.527C176.567 159.033 177.788 153.514 177.112 148.122L177.111 148.108L175.957 144.896C176.341 144.552 176.745 144.354 177.153 144.302C177.585 144.248 178.028 144.34 178.468 144.578C179.349 145.054 180.204 146.123 180.787 147.681L181.076 147.595C180.478 145.996 179.602 144.872 178.626 144.344C178.137 144.079 177.619 143.966 177.111 144.032Z" fill="#FF9955"/>
<path d="M175.89 134.946C175.813 134.951 175.752 135.006 175.748 135.075C175.655 136.549 176.008 138.08 176.359 139.601C175.366 146.737 172.499 152.675 171.559 159.162C171.548 159.237 171.606 159.306 171.69 159.315C171.73 159.32 171.77 159.31 171.802 159.289C171.834 159.266 171.855 159.233 171.86 159.197C172.794 152.754 175.667 146.806 176.665 139.615C176.666 139.6 176.666 139.584 176.662 139.57C176.308 138.041 175.961 136.523 176.051 135.09C176.054 135.054 176.04 135.018 176.013 134.991C175.986 134.964 175.949 134.948 175.907 134.946C175.902 134.946 175.896 134.946 175.89 134.946Z" fill="#FF9955"/>
<path d="M182.714 129.286C182.274 129.313 181.852 129.464 181.477 129.713C180.79 130.168 180.278 130.965 179.99 131.914C179.482 131.078 178.763 130.517 178.008 130.287C177.183 130.037 176.319 130.173 175.714 130.722C175.277 131.119 175.264 131.813 175.33 132.567C175.394 133.322 175.551 134.153 175.548 134.823C175.467 139.009 173.254 143.101 172 147.207C170.449 150.092 170.412 154.558 168.943 158.277C168.943 158.277 168.942 158.278 168.942 158.279C167.594 161.026 166.714 163.571 166.714 166.453C166.338 171.777 166.864 175.857 165.158 180.321C164.265 182.656 162.08 184.56 159.291 186.267C156.502 187.974 153.116 189.483 149.847 191.039C149.846 191.039 149.846 191.039 149.845 191.039C149.845 191.04 149.844 191.04 149.843 191.041C149.529 191.197 149.37 191.553 149.284 192.044C149.197 192.536 149.187 193.179 149.228 193.951C149.31 195.496 149.598 197.559 149.919 199.91C150.561 204.611 151.334 210.462 150.862 215.565C150.858 215.612 150.887 215.659 150.935 215.681C150.983 215.702 151.041 215.695 151.081 215.663C156.153 211.616 162.206 206.594 167.534 201.799C172.861 197.005 177.463 192.442 179.645 189.29C179.646 189.288 179.647 189.286 179.649 189.284C180.333 188.171 181.052 186.818 181.504 185.433C181.987 187.333 182.894 189.356 184.947 191.079C191.097 197.342 196.886 204.022 202.285 211.154C202.316 211.194 202.37 211.213 202.422 211.203C202.475 211.193 202.515 211.156 202.525 211.109C203.575 206.14 205.035 201.115 206.057 197.035C206.568 194.996 206.97 193.194 207.155 191.749C207.341 190.305 207.324 189.223 206.938 188.59C206.927 188.57 206.91 188.554 206.888 188.544C202.065 186.073 197.553 183.374 196.005 177.911C195.427 171.748 195.522 167.252 195.524 162.517C195.524 162.516 195.524 162.516 195.524 162.516C195.512 160.341 193.592 158.553 192.375 156.679C191.407 153.307 190.774 150.267 189.255 146.331C189.255 146.329 189.254 146.327 189.254 146.325C188.424 144.45 187.495 142.378 186.725 140.547C185.957 138.72 185.349 137.13 185.156 136.23C185.148 135.513 185.237 134.733 185.237 134.076C185.237 133.745 185.216 133.445 185.142 133.194C185.077 132.973 184.957 132.795 184.779 132.674C184.785 132.271 184.864 131.673 184.823 131.09C184.782 130.491 184.611 129.895 184.06 129.597C183.612 129.354 183.154 129.258 182.714 129.286ZM182.73 129.518C183.115 129.493 183.516 129.58 183.922 129.8C184.36 130.037 184.52 130.537 184.559 131.104C184.598 131.673 184.516 132.288 184.512 132.717C184.512 132.76 184.538 132.8 184.58 132.821C184.723 132.895 184.822 133.037 184.886 133.254C184.949 133.471 184.973 133.754 184.973 134.076C184.971 134.717 184.882 135.504 184.89 136.244C184.89 136.252 184.891 136.258 184.893 136.266C185.093 137.205 185.707 138.796 186.478 140.631C187.249 142.466 188.178 144.539 189.007 146.413C190.521 150.338 191.15 153.369 192.123 156.755C192.126 156.766 192.131 156.776 192.137 156.785C193.378 158.701 195.249 160.464 195.258 162.517C195.257 167.253 195.161 171.762 195.742 177.945C195.743 177.951 195.744 177.957 195.746 177.964C197.312 183.502 201.893 186.255 206.712 188.726C207.026 189.261 207.074 190.308 206.892 191.722C206.709 193.149 206.31 194.946 205.799 196.982C204.797 200.981 203.377 205.906 202.33 210.796C196.973 203.742 191.238 197.125 185.146 190.921C185.143 190.918 185.14 190.915 185.136 190.913C182.99 189.116 182.106 186.986 181.654 185.005C181.643 184.95 181.59 184.911 181.528 184.909C181.466 184.908 181.412 184.945 181.396 184.999C180.978 186.481 180.161 187.958 179.418 189.166C177.263 192.279 172.667 196.842 167.346 201.63C162.099 206.352 156.161 211.281 151.136 215.297C151.559 210.225 150.813 204.498 150.182 199.881C149.862 197.53 149.575 195.469 149.494 193.94C149.453 193.175 149.465 192.543 149.545 192.081C149.627 191.62 149.782 191.345 149.972 191.25C153.236 189.696 156.629 188.185 159.441 186.464C162.253 184.743 164.488 182.809 165.409 180.398C167.137 175.876 166.603 171.766 166.979 166.461C166.98 166.458 166.98 166.455 166.98 166.452C166.98 163.611 167.846 161.102 169.188 158.366C169.189 158.363 169.19 158.361 169.192 158.358C170.687 154.578 170.734 150.093 172.245 147.295C172.249 147.288 172.252 147.282 172.254 147.275C173.499 143.197 175.732 139.087 175.813 134.826C175.813 134.826 175.813 134.825 175.813 134.824C175.816 134.12 175.657 133.287 175.594 132.549C175.531 131.81 175.579 131.182 175.902 130.889C176.435 130.406 177.177 130.287 177.922 130.514C178.668 130.739 179.412 131.317 179.895 132.238C179.92 132.284 179.973 132.311 180.03 132.306C180.087 132.3 180.132 132.263 180.145 132.212C180.394 131.185 180.951 130.357 181.633 129.904C181.975 129.678 182.344 129.542 182.73 129.518Z" fill="#FF9955"/>
<path d="M33.7965 285.976C33.4651 285.976 33.1965 286.217 33.1965 286.514C33.1965 286.813 33.4651 287.054 33.7965 287.054H323.204C323.535 287.054 323.804 286.813 323.804 286.514C323.804 286.217 323.535 285.976 323.204 285.976H33.7965Z" fill="#E6E6E6"/>
</g>
</g>
</g>
<defs>
<clipPath id="clip0_383_19">
<rect width="357" height="321" fill="white"/>
</clipPath>
</defs>
</svg>
