<svg width="161" height="162" viewBox="0 0 161 162" fill="none" xmlns="http://www.w3.org/2000/svg">
<path fill-rule="evenodd" clip-rule="evenodd" d="M53.6667 47.25C53.6667 40.0892 56.4937 33.2216 61.526 28.1581C66.5582 23.0946 73.3834 20.25 80.5 20.25C87.6166 20.25 94.4418 23.0946 99.474 28.1581C104.506 33.2216 107.333 40.0892 107.333 47.25C107.333 54.4108 104.506 61.2784 99.474 66.3419C94.4418 71.4054 87.6166 74.25 80.5 74.25C73.3834 74.25 66.5582 71.4054 61.526 66.3419C56.4937 61.2784 53.6667 54.4108 53.6667 47.25ZM53.6667 87.75C44.7709 87.75 36.2394 91.3058 29.9491 97.6351C23.6588 103.965 20.125 112.549 20.125 121.5C20.125 126.871 22.2453 132.021 26.0195 135.819C29.7936 139.617 34.9125 141.75 40.25 141.75H120.75C126.087 141.75 131.206 139.617 134.981 135.819C138.755 132.021 140.875 126.871 140.875 121.5C140.875 112.549 137.341 103.965 131.051 97.6351C124.761 91.3058 116.229 87.75 107.333 87.75H53.6667Z" fill="#184B05"/>
</svg>
