<svg width="648" height="633" viewBox="0 0 648 633" fill="none" xmlns="http://www.w3.org/2000/svg">
<g clip-path="url(#clip0_385_500)">
<path d="M411.146 142.174H236.636C232.659 142.178 228.847 143.76 226.035 146.572C223.223 149.384 221.641 153.197 221.636 157.174V545.024L219.636 545.634L176.826 558.744C174.797 559.362 172.606 559.151 170.733 558.155C168.86 557.16 167.459 555.461 166.836 553.434L39.4961 137.484C38.8764 135.455 39.0876 133.263 40.0833 131.39C41.079 129.516 42.7778 128.115 44.8062 127.494L110.776 107.294L302.026 48.7537L367.996 28.5536C369 28.2447 370.055 28.1367 371.101 28.2359C372.147 28.3351 373.162 28.6396 374.09 29.1319C375.018 29.6242 375.84 30.2946 376.509 31.1048C377.177 31.915 377.679 32.8491 377.986 33.8537L410.536 140.174L411.146 142.174Z" fill="#83DF75"/>
<path d="M449.226 140.174L409.996 12.034C409.343 9.89894 408.276 7.91342 406.856 6.1909C405.436 4.46837 403.69 3.04261 401.718 1.99507C399.747 0.947523 397.588 0.298728 395.366 0.0857789C393.143 -0.12717 390.901 0.0999007 388.766 0.753992L296.016 29.144L104.776 87.694L12.0264 116.094C7.71776 117.417 4.11004 120.396 1.99518 124.376C-0.119678 128.356 -0.568904 133.013 0.746128 137.324L134.826 575.254C135.894 578.734 138.05 581.78 140.976 583.945C143.903 586.11 147.446 587.28 151.086 587.284C152.771 587.285 154.447 587.032 156.056 586.534L219.636 567.074L221.636 566.454V564.364L219.636 564.974L155.466 584.624C151.663 585.783 147.555 585.387 144.044 583.522C140.533 581.656 137.905 578.474 136.736 574.674L2.66654 136.734C2.08763 134.851 1.88586 132.872 2.07279 130.911C2.25971 128.95 2.83164 127.045 3.75586 125.305C4.68008 123.565 5.93844 122.025 7.45884 120.772C8.97923 119.519 10.7318 118.579 12.6162 118.004L105.366 89.604L296.606 31.064L389.356 2.66401C390.786 2.22781 392.272 2.0054 393.766 2.00401C396.973 2.01121 400.094 3.04516 402.671 4.95443C405.248 6.8637 407.146 9.54794 408.086 12.614L447.136 140.174L447.756 142.174H449.836L449.226 140.174Z" fill="#184B05"/>
<path d="M122.681 127.821C120.754 127.82 118.877 127.201 117.328 126.055C115.778 124.909 114.636 123.297 114.07 121.454L101.189 79.3825C100.843 78.2524 100.723 77.0651 100.836 75.8886C100.949 74.7121 101.292 73.5693 101.847 72.5255C102.401 71.4817 103.156 70.5574 104.067 69.8053C104.979 69.0532 106.03 68.4881 107.16 68.1423L283.099 14.2785C285.382 13.582 287.847 13.8195 289.955 14.9389C292.062 16.0583 293.639 17.9681 294.34 20.2492L307.221 62.3215C307.917 64.6038 307.679 67.0691 306.559 69.1764C305.44 71.2837 303.531 72.861 301.25 73.5622L125.31 127.426C124.458 127.687 123.572 127.821 122.681 127.821Z" fill="#184B05"/>
<path d="M190.154 44.9546C201.199 44.9546 210.154 36.0003 210.154 24.9546C210.154 13.9089 201.199 4.95459 190.154 4.95459C179.108 4.95459 170.154 13.9089 170.154 24.9546C170.154 36.0003 179.108 44.9546 190.154 44.9546Z" fill="#184B05"/>
<path d="M190.154 37.6193C197.148 37.6193 202.818 31.9491 202.818 24.9547C202.818 17.9602 197.148 12.29 190.154 12.29C183.159 12.29 177.489 17.9602 177.489 24.9547C177.489 31.9491 183.159 37.6193 190.154 37.6193Z" fill="white"/>
<path d="M602.636 582.174H264.636C262.383 582.171 260.222 581.275 258.629 579.681C257.035 578.088 256.139 575.927 256.136 573.674V168.674C256.139 166.42 257.035 164.26 258.629 162.666C260.222 161.073 262.383 160.176 264.636 160.174H602.636C604.89 160.176 607.05 161.073 608.644 162.666C610.237 164.26 611.134 166.42 611.136 168.674V573.674C611.134 575.927 610.237 578.088 608.644 579.681C607.05 581.275 604.89 582.171 602.636 582.174Z" fill="#83DF75"/>
<path d="M447.136 140.174H236.636C232.13 140.18 227.809 141.973 224.622 145.16C221.436 148.347 219.643 152.667 219.636 157.174V564.974L221.636 564.364V157.174C221.641 153.197 223.223 149.385 226.035 146.573C228.847 143.761 232.659 142.179 236.636 142.174H447.756L447.136 140.174ZM630.636 140.174H236.636C232.13 140.18 227.809 141.973 224.622 145.16C221.436 148.347 219.643 152.667 219.636 157.174V615.174C219.643 619.681 221.436 624.001 224.622 627.188C227.809 630.374 232.13 632.167 236.636 632.174H630.636C635.143 632.167 639.463 630.374 642.65 627.188C645.837 624.001 647.63 619.681 647.636 615.174V157.174C647.63 152.667 645.837 148.347 642.65 145.16C639.463 141.973 635.143 140.18 630.636 140.174ZM645.636 615.174C645.631 619.151 644.049 622.963 641.237 625.775C638.425 628.587 634.613 630.169 630.636 630.174H236.636C232.659 630.169 228.847 628.587 226.035 625.775C223.223 622.963 221.641 619.151 221.636 615.174V157.174C221.641 153.197 223.223 149.385 226.035 146.573C228.847 143.761 232.659 142.179 236.636 142.174H630.636C634.613 142.179 638.425 143.761 641.237 146.573C644.049 149.385 645.631 153.197 645.636 157.174V615.174Z" fill="#184B05"/>
<path d="M525.636 184.174H341.636C339.25 184.171 336.963 183.222 335.275 181.535C333.588 179.848 332.639 177.56 332.636 175.174V131.174C332.639 128.788 333.588 126.5 335.276 124.813C336.963 123.126 339.25 122.177 341.636 122.174H525.636C528.023 122.177 530.31 123.126 531.997 124.813C533.685 126.5 534.634 128.788 534.636 131.174V175.174C534.634 177.56 533.685 179.848 531.997 181.535C530.31 183.222 528.023 184.171 525.636 184.174Z" fill="#184B05"/>
<path d="M433.636 125.174C444.682 125.174 453.636 116.22 453.636 105.174C453.636 94.1281 444.682 85.1738 433.636 85.1738C422.591 85.1738 413.636 94.1281 413.636 105.174C413.636 116.22 422.591 125.174 433.636 125.174Z" fill="#184B05"/>
<path d="M433.636 117.356C440.364 117.356 445.818 111.902 445.818 105.174C445.818 98.4462 440.364 92.9922 433.636 92.9922C426.908 92.9922 421.454 98.4462 421.454 105.174C421.454 111.902 426.908 117.356 433.636 117.356Z" fill="white"/>
</g>
<defs>
<clipPath id="clip0_385_500">
<rect width="647.636" height="632.174" fill="white"/>
</clipPath>
</defs>
</svg>
