<svg width="22" height="17" viewBox="0 0 22 17" fill="none" xmlns="http://www.w3.org/2000/svg">
<path fill-rule="evenodd" clip-rule="evenodd" d="M6.669 0.311845C9.92715 0.07479 13.1997 0.0903956 16.4553 0.358512L18.4176 0.519512C19.1375 0.578954 19.8158 0.870338 20.3435 1.34684C20.8712 1.82335 21.2177 2.4573 21.3273 3.14684L21.4505 3.92735C21.8706 6.57319 21.8314 9.26811 21.3345 11.9015C21.2157 12.5311 20.8719 13.1005 20.3629 13.5105C19.854 13.9204 19.2122 14.145 18.5493 14.145H7.70334C7.45321 14.145 7.20792 14.2045 6.988 14.3188L2.26221 16.7712C2.12411 16.8428 1.96913 16.8787 1.8124 16.8752C1.65567 16.8717 1.50256 16.829 1.36803 16.7513C1.23349 16.6736 1.12213 16.5635 1.04483 16.4319C0.96753 16.3002 0.926931 16.1514 0.927002 16V6.06351C0.927313 4.61321 1.49508 3.21655 2.51659 2.15325C3.5381 1.08994 4.93795 0.438485 6.43579 0.329345L6.669 0.311845ZM6.66659 6.08334C6.266 6.08334 5.88182 6.23699 5.59856 6.51048C5.3153 6.78397 5.15617 7.1549 5.15617 7.54168C5.15617 7.92845 5.3153 8.29939 5.59856 8.57288C5.88182 8.84637 6.266 9.00001 6.66659 9.00001C7.06717 9.00001 7.45135 8.84637 7.73461 8.57288C8.01787 8.29939 8.177 7.92845 8.177 7.54168C8.177 7.1549 8.01787 6.78397 7.73461 6.51048C7.45135 6.23699 7.06717 6.08334 6.66659 6.08334ZM11.4999 6.08334C11.0993 6.08334 10.7152 6.23699 10.4319 6.51048C10.1486 6.78397 9.9895 7.1549 9.9895 7.54168C9.9895 7.92845 10.1486 8.29939 10.4319 8.57288C10.7152 8.84637 11.0993 9.00001 11.4999 9.00001C11.9005 9.00001 12.2847 8.84637 12.5679 8.57288C12.8512 8.29939 13.0103 7.92845 13.0103 7.54168C13.0103 7.1549 12.8512 6.78397 12.5679 6.51048C12.2847 6.23699 11.9005 6.08334 11.4999 6.08334ZM14.8228 7.54168C14.8228 7.1549 14.982 6.78397 15.2652 6.51048C15.5485 6.23699 15.9327 6.08334 16.3333 6.08334C16.7338 6.08334 17.118 6.23699 17.4013 6.51048C17.6845 6.78397 17.8437 7.1549 17.8437 7.54168C17.8437 7.92845 17.6845 8.29939 17.4013 8.57288C17.118 8.84637 16.7338 9.00001 16.3333 9.00001C15.9327 9.00001 15.5485 8.84637 15.2652 8.57288C14.982 8.29939 14.8228 7.92845 14.8228 7.54168Z" fill="white"/>
</svg>
